<svg xmlns="http://www.w3.org/2000/svg" xmlns:xlink="http://www.w3.org/1999/xlink" width="500" zoomAndPan="magnify" viewBox="0 0 375 374.999991" height="500" preserveAspectRatio="xMidYMid meet" version="1.2"><defs><clipPath id="db4186556a"><path d="M 7.636719 7.636719 L 367.636719 7.636719 L 367.636719 367.636719 L 7.636719 367.636719 Z M 7.636719 7.636719 "/></clipPath><clipPath id="285f6063e1"><path d="M 202.101562 144 L 213 144 L 213 157 L 202.101562 157 Z M 202.101562 144 "/></clipPath><clipPath id="7fb7e66558"><path d="M 202.101562 135 L 209 135 L 209 139 L 202.101562 139 Z M 202.101562 135 "/></clipPath><clipPath id="47ca40c70d"><path d="M 208 121.289062 L 250 121.289062 L 250 169 L 208 169 Z M 208 121.289062 "/></clipPath><clipPath id="a5ffd212ee"><path d="M 202.101562 121.289062 L 214 121.289062 L 214 133 L 202.101562 133 Z M 202.101562 121.289062 "/></clipPath><clipPath id="69d07094f4"><path d="M 238 121.289062 L 250 121.289062 L 250 133 L 238 133 Z M 238 121.289062 "/></clipPath><clipPath id="79b2741815"><path d="M 202.101562 157 L 214 157 L 214 169.289062 L 202.101562 169.289062 Z M 202.101562 157 "/></clipPath></defs><g id="3585516302"><g clip-rule="nonzero" clip-path="url(#db4186556a)"><path style=" stroke:none;fill-rule:nonzero;fill:#ffffff;fill-opacity:1;" d="M 227.386719 7.636719 C 150.265625 7.636719 87.417969 70.484375 87.417969 147.605469 C 87.417969 181.046875 100.824219 210.589844 120.496094 234.703125 L 7.539062 347.660156 L 27.332031 367.453125 L 140.289062 254.496094 C 164.402344 274.171875 193.945312 287.574219 227.386719 287.574219 C 304.507812 287.574219 367.355469 224.726562 367.355469 147.605469 C 367.355469 70.484375 304.507812 7.636719 227.386719 7.636719 Z M 227.386719 35.628906 C 289.367188 35.628906 339.363281 85.625 339.363281 147.605469 C 339.363281 209.585938 289.367188 259.582031 227.386719 259.582031 C 165.40625 259.582031 115.414062 209.585938 115.414062 147.605469 C 115.414062 85.625 165.40625 35.628906 227.386719 35.628906 Z M 185.863281 96.648438 L 143.40625 147.605469 L 185.863281 198.5625 L 207.375 180.628906 L 179.847656 147.605469 L 207.375 114.582031 Z M 269.078125 96.648438 L 247.5625 114.582031 L 275.089844 147.605469 L 247.5625 180.628906 L 269.078125 198.5625 L 311.558594 147.605469 Z M 269.078125 96.648438 "/></g><path style=" stroke:none;fill-rule:nonzero;fill:#ffffff;fill-opacity:1;" d="M 220.277344 130.054688 L 222.507812 130.054688 L 222.507812 132.257812 L 220.277344 132.257812 Z M 220.277344 130.054688 "/><path style=" stroke:none;fill-rule:nonzero;fill:#ffffff;fill-opacity:1;" d="M 218.636719 133.445312 L 218.636719 135.648438 L 216.195312 135.589844 L 215.816406 135.582031 L 215.816406 133.378906 Z M 218.636719 133.445312 "/><path style=" stroke:none;fill-rule:nonzero;fill:#ffffff;fill-opacity:1;" d="M 219.046875 132.824219 L 221.277344 132.824219 L 221.277344 135.023438 L 219.046875 135.023438 Z M 219.046875 132.824219 "/><path style=" stroke:none;fill-rule:nonzero;fill:#ffffff;fill-opacity:1;" d="M 215.8125 129.472656 L 219.605469 129.472656 L 219.605469 131.667969 L 215.8125 131.667969 Z M 215.8125 129.472656 "/><path style=" stroke:none;fill-rule:nonzero;fill:#ffffff;fill-opacity:1;" d="M 208.484375 143.28125 L 210.714844 143.28125 L 210.714844 145.484375 L 208.484375 145.484375 Z M 208.484375 143.28125 "/><path style=" stroke:none;fill-rule:nonzero;fill:#ffffff;fill-opacity:1;" d="M 208.015625 139.710938 L 210.246094 139.710938 L 210.246094 141.914062 L 208.015625 141.914062 Z M 208.015625 139.710938 "/><path style=" stroke:none;fill-rule:nonzero;fill:#ffffff;fill-opacity:1;" d="M 215.8125 126.273438 L 218.636719 126.273438 L 218.636719 128.476562 L 215.8125 128.476562 Z M 215.8125 126.273438 "/><path style=" stroke:none;fill-rule:nonzero;fill:#ffffff;fill-opacity:1;" d="M 236.402344 146.511719 L 236.441406 146.511719 L 236.441406 146.574219 L 236.402344 146.574219 Z M 236.402344 146.511719 "/><path style=" stroke:none;fill-rule:nonzero;fill:#ffffff;fill-opacity:1;" d="M 236.402344 148.480469 L 236.441406 148.480469 L 236.441406 148.71875 L 236.402344 148.71875 Z M 236.402344 148.480469 "/><g clip-rule="nonzero" clip-path="url(#285f6063e1)"><path style=" stroke:none;fill-rule:nonzero;fill:#ffffff;fill-opacity:1;" d="M 212.796875 147.09375 L 212.796875 149.15625 L 212.527344 149.15625 L 212.527344 149.289062 L 211.140625 149.289062 L 211.140625 151.316406 L 208.03125 151.316406 L 208.03125 153.246094 L 210.25 153.246094 L 210.25 156.027344 L 202.761719 156.027344 L 202.761719 153.246094 L 205.871094 153.246094 L 205.871094 151.316406 L 202.761719 151.316406 L 202.761719 146.253906 L 204.5 146.253906 L 204.5 144.183594 L 206.734375 144.183594 L 206.734375 146.253906 L 208.335938 146.253906 L 208.335938 149.097656 L 209.597656 149.097656 L 209.597656 147.09375 Z M 212.796875 147.09375 "/></g><path style=" stroke:none;fill-rule:nonzero;fill:#ffffff;fill-opacity:1;" d="M 212.527344 149.164062 L 212.796875 149.164062 L 212.796875 149.289062 L 212.527344 149.289062 Z M 212.527344 149.164062 "/><g clip-rule="nonzero" clip-path="url(#7fb7e66558)"><path style=" stroke:none;fill-rule:nonzero;fill:#ffffff;fill-opacity:1;" d="M 208.015625 135.113281 L 208.015625 138.71875 L 205.863281 138.71875 L 205.863281 138.613281 L 205.785156 138.613281 L 205.785156 137.320312 L 202.660156 137.320312 L 202.660156 135.113281 Z M 208.015625 135.113281 "/></g><path style=" stroke:none;fill-rule:nonzero;fill:#ffffff;fill-opacity:1;" d="M 205.785156 138.613281 L 205.863281 138.613281 L 205.863281 138.71875 L 205.785156 138.71875 Z M 205.785156 138.613281 "/><path style=" stroke:none;fill-rule:nonzero;fill:#ffffff;fill-opacity:1;" d="M 207.316406 140.816406 L 207.316406 143.015625 L 205.085938 143.015625 L 205.085938 140.816406 L 203.632812 140.816406 L 203.632812 138.613281 L 205.785156 138.613281 L 205.785156 138.71875 L 205.863281 138.71875 L 205.863281 140.816406 Z M 207.316406 140.816406 "/><path style=" stroke:none;fill-rule:nonzero;fill:#ffffff;fill-opacity:1;" d="M 205.785156 138.613281 L 205.863281 138.613281 L 205.863281 138.71875 L 205.785156 138.71875 Z M 205.785156 138.613281 "/><path style=" stroke:none;fill-rule:nonzero;fill:#ffffff;fill-opacity:1;" d="M 215.816406 135.121094 L 215.816406 135.582031 L 216.195312 135.589844 L 216.195312 135.121094 Z M 215.816406 135.121094 "/><g clip-rule="nonzero" clip-path="url(#47ca40c70d)"><path style=" stroke:none;fill-rule:nonzero;fill:#ffffff;fill-opacity:1;" d="M 245.789062 139.351562 L 247.1875 139.351562 L 247.1875 141.058594 L 245.789062 141.058594 Z M 243.832031 137.453125 L 245.324219 137.453125 L 245.324219 139.203125 L 243.832031 139.203125 Z M 242.066406 139.5 L 243.550781 139.5 L 243.550781 141.097656 L 242.066406 141.097656 Z M 240.023438 146.527344 L 242.066406 146.527344 L 242.066406 148.332031 L 240.023438 148.332031 Z M 228.269531 125.769531 L 223 125.769531 L 223 127.054688 L 221.769531 127.054688 L 221.769531 125.15625 L 219.726562 125.15625 L 219.726562 123.484375 L 226.964844 123.484375 L 226.964844 124.851562 L 228.269531 124.851562 Z M 217.640625 149.75 L 216.683594 149.75 L 216.683594 145.777344 L 217.640625 145.777344 Z M 222.09375 149.726562 L 218.925781 149.726562 L 218.925781 146.511719 L 222.09375 146.511719 Z M 220.21875 163.613281 L 218.917969 163.613281 L 218.917969 161.949219 L 220.21875 161.949219 Z M 220.320312 159.738281 L 218.667969 159.738281 L 218.667969 157.832031 L 220.320312 157.832031 Z M 234.511719 141.4375 L 237.796875 141.4375 L 237.796875 144.375 L 236.699219 144.375 L 236.699219 142.574219 L 234.511719 142.574219 Z M 234.511719 144.777344 L 236.402344 144.777344 L 236.402344 146.511719 L 236.441406 146.511719 L 236.441406 146.574219 L 237.796875 146.574219 L 237.796875 148.480469 L 236.441406 148.480469 L 236.441406 148.71875 L 236.402344 148.71875 L 236.402344 148.480469 L 236.441406 148.480469 L 236.441406 146.574219 L 236.402344 146.574219 L 236.402344 146.511719 L 234.511719 146.511719 Z M 228.804688 141.4375 L 230.660156 141.4375 L 230.660156 142.691406 L 232.335938 142.691406 L 232.335938 144.414062 L 228.804688 144.414062 Z M 230.867188 146.632812 L 230.867188 149.703125 L 229.109375 149.703125 L 229.109375 146.632812 Z M 223.550781 146.632812 L 226.324219 146.632812 L 226.324219 149.75 L 223.550781 149.75 Z M 221.992188 161.546875 L 220.507812 161.546875 L 220.507812 159.902344 L 221.992188 159.902344 Z M 226.890625 163.632812 L 223.75 163.632812 L 223.75 162.519531 L 226.890625 162.519531 Z M 226.890625 161.578125 L 225.054688 161.578125 L 225.054688 160.242188 L 226.890625 160.242188 Z M 229.566406 156.761719 L 224.292969 156.761719 L 224.292969 159.589844 L 222.546875 159.589844 L 222.546875 157.703125 L 220.507812 157.703125 L 220.507812 155.828125 L 227.460938 155.828125 L 227.460938 154.445312 L 229.566406 154.445312 Z M 234.214844 161.578125 L 229.6875 161.578125 L 229.6875 160.242188 L 232.277344 160.242188 L 232.277344 158.980469 L 234.214844 158.980469 Z M 234.214844 158.03125 L 232.277344 158.03125 L 232.277344 153.230469 L 224.863281 153.230469 L 224.863281 151.96875 L 226.667969 151.96875 L 226.667969 149.75 L 228.90625 149.75 L 228.90625 151.464844 L 230.867188 151.464844 L 230.867188 152.664062 L 234.214844 152.664062 Z M 239.839844 155.582031 L 238.910156 155.582031 L 238.910156 158.335938 L 238.035156 158.335938 L 238.035156 156.960938 L 236.402344 156.960938 L 236.402344 152.613281 L 234.214844 152.613281 L 234.214844 150.402344 L 233.09375 150.402344 L 233.09375 146.632812 L 234.214844 146.632812 L 234.214844 150.402344 L 236.402344 150.402344 L 236.402344 152.613281 L 237.796875 152.613281 L 237.796875 154.277344 L 239.839844 154.277344 Z M 239.839844 141.246094 L 238.191406 141.246094 L 238.191406 139.335938 L 239.839844 139.335938 Z M 241.746094 159.902344 L 240.804688 159.902344 L 240.804688 158.808594 L 241.746094 158.808594 Z M 245.375 160.132812 L 243.90625 160.132812 L 243.90625 158.773438 L 243.882812 158.773438 L 243.882812 158.5 L 245.375 158.5 Z M 226.570312 138.617188 L 225.789062 138.617188 L 225.789062 135.855469 L 226.570312 135.855469 Z M 229.992188 138.519531 L 228.21875 138.519531 L 228.21875 136.746094 L 229.992188 136.746094 Z M 247.78125 161.007812 L 247.78125 163.167969 L 245.894531 163.167969 L 245.894531 160.40625 L 247.601562 160.40625 L 247.601562 159.128906 L 249.441406 159.128906 L 249.441406 156.925781 L 247.601562 156.925781 L 247.601562 154.90625 L 246.445312 154.90625 L 246.445312 153.289062 L 247.832031 153.289062 L 247.832031 154.9375 L 249.441406 154.9375 L 249.441406 152.726562 L 248.015625 152.726562 L 248.015625 151.085938 L 246.445312 151.085938 L 246.445312 149.4375 L 244.210938 149.4375 L 244.210938 152.726562 L 243.179688 152.726562 L 243.179688 151.085938 L 240.953125 151.085938 L 240.953125 153.289062 L 243 153.289062 L 243 154.9375 L 244.210938 154.9375 L 244.210938 155.582031 L 245.375 155.582031 L 245.375 156.800781 L 243.667969 156.800781 L 243.667969 158.335938 L 242.140625 158.335938 L 242.140625 156.960938 L 240.804688 156.960938 L 240.804688 156.292969 L 242.066406 156.292969 L 242.066406 153.832031 L 240.023438 153.832031 L 240.023438 150.542969 L 242.332031 150.542969 L 242.332031 148.5625 L 244.304688 148.5625 L 244.304688 146.527344 L 245.789062 146.527344 L 245.789062 148.421875 L 247.644531 148.421875 L 247.644531 150.277344 L 249.441406 150.277344 L 249.441406 148.078125 L 248.015625 148.078125 L 248.015625 146.222656 L 249.441406 146.222656 L 249.441406 144.316406 L 244.113281 144.316406 L 244.113281 146.371094 L 242.488281 146.371094 L 242.488281 144.316406 L 240.023438 144.316406 L 240.023438 141.40625 L 241.515625 141.40625 L 241.515625 143.300781 L 243.75 143.300781 L 243.75 141.40625 L 245.324219 141.40625 L 245.324219 143.253906 L 247.558594 143.253906 L 247.558594 141.214844 L 249.441406 141.214844 L 249.441406 139.003906 L 247.558594 139.003906 L 247.558594 137.148438 L 245.878906 137.148438 L 245.878906 134.722656 L 243.652344 134.722656 L 243.652344 137.296875 L 241.605469 137.296875 L 241.605469 139.203125 L 240.023438 139.203125 L 240.023438 137.125 L 240.996094 137.125 L 240.996094 134.722656 L 235.847656 134.722656 L 235.847656 137.527344 L 237.796875 137.527344 L 237.796875 138.617188 L 232.535156 138.617188 L 232.535156 136.917969 L 234.214844 136.917969 L 234.214844 134.722656 L 232.535156 134.722656 L 232.535156 132.820312 L 230.496094 132.820312 L 230.496094 130.824219 L 232.453125 130.824219 L 232.453125 132.515625 L 235.75 132.515625 L 235.75 130.320312 L 232.535156 130.320312 L 232.535156 128.8125 L 235.75 128.8125 L 235.75 126.609375 L 231.660156 126.609375 L 231.660156 128.628906 L 230.496094 128.628906 L 230.496094 124.851562 L 235.75 124.851562 L 235.75 122.59375 L 232.441406 122.59375 L 232.441406 121.304688 L 219.273438 121.304688 L 219.273438 123.085938 L 215.839844 123.085938 L 215.839844 125.289062 L 219.542969 125.289062 L 219.542969 127.359375 L 221.210938 127.359375 L 221.210938 129.257812 L 223.4375 129.257812 L 223.4375 127.976562 L 228.269531 127.976562 L 228.269531 128.960938 L 226.324219 128.960938 L 226.324219 131.160156 L 228.269531 131.160156 L 228.269531 132.960938 L 230.308594 132.960938 L 230.308594 134.542969 L 228.433594 134.542969 L 228.433594 135.402344 L 227.800781 135.402344 L 227.800781 133.652344 L 225.789062 133.652344 L 225.789062 130.566406 L 223.550781 130.566406 L 223.550781 134.542969 L 221.695312 134.542969 L 221.695312 136.753906 L 223.550781 136.753906 L 223.550781 138.617188 L 220.996094 138.617188 L 220.996094 136.644531 L 218.761719 136.644531 L 218.761719 138.617188 L 216.195312 138.617188 L 216.195312 135.589844 L 215.816406 135.582031 L 215.816406 135.121094 L 208.921875 135.121094 L 208.921875 137.75 L 210.710938 137.75 L 210.710938 139.714844 L 212.945312 139.714844 L 212.945312 137.75 L 213.960938 137.75 L 213.960938 140.488281 L 211.246094 140.488281 L 211.246094 142.691406 L 213.960938 142.691406 L 213.960938 143.566406 L 211.832031 143.566406 L 211.832031 145.777344 L 214.445312 145.777344 L 214.445312 149.164062 L 212.796875 149.164062 L 212.796875 149.289062 L 212.527344 149.289062 L 212.527344 156.027344 L 214.761719 156.027344 L 214.761719 153.230469 L 216.683594 153.230469 L 216.683594 151.96875 L 222.636719 151.96875 L 222.636719 153.628906 L 220.386719 153.628906 L 220.386719 155.632812 L 218.570312 155.632812 L 218.570312 153.832031 L 215.816406 153.832031 L 215.816406 156.035156 L 218.28125 156.035156 L 218.28125 157.703125 L 215.816406 157.703125 L 215.816406 159.902344 L 218.28125 159.902344 L 218.28125 161.769531 L 215.816406 161.769531 L 215.816406 168.902344 L 218.371094 168.902344 L 218.371094 165.808594 L 220.609375 165.808594 L 220.609375 163.738281 L 221.574219 163.738281 L 221.574219 168.390625 L 226.390625 168.390625 L 226.390625 167.179688 L 223.75 167.179688 L 223.75 165.808594 L 224.484375 165.808594 L 224.484375 164.851562 L 225.046875 164.851562 L 225.046875 166.519531 L 226.890625 166.519531 L 226.890625 167.277344 L 229.6875 167.277344 L 229.6875 165.964844 L 231.429688 165.964844 L 231.429688 167.894531 L 233.664062 167.894531 L 233.664062 165.703125 L 231.683594 165.703125 L 231.683594 164.992188 L 229.6875 164.992188 L 229.6875 163.632812 L 231.980469 163.632812 L 231.980469 162.519531 L 234.214844 162.519531 L 234.214844 165.460938 L 236.402344 165.460938 L 236.402344 158.808594 L 237.878906 158.808594 L 237.878906 160.183594 L 238.910156 160.183594 L 238.910156 160.726562 L 240.441406 160.726562 L 240.441406 161.59375 L 241.746094 161.59375 L 241.746094 161.644531 L 243.71875 161.644531 L 243.71875 162.882812 L 240.929688 162.882812 L 240.929688 164.449219 L 238.902344 164.449219 L 238.902344 166.632812 L 240.929688 166.632812 L 240.929688 168.339844 L 245.894531 168.339844 L 245.894531 165.289062 L 247.78125 165.289062 L 247.78125 168.339844 L 249.9375 168.339844 L 249.9375 161.007812 Z M 218.6875 143.566406 L 216.195312 143.566406 L 216.195312 141.4375 L 218.6875 141.4375 Z M 221.5 142.277344 L 220.320312 142.277344 L 220.320312 141.097656 L 221.5 141.097656 Z M 226.570312 144.414062 L 223.550781 144.414062 L 223.550781 141.4375 L 226.570312 141.4375 Z M 226.570312 144.414062 "/></g><path style=" stroke:none;fill-rule:nonzero;fill:#ffffff;fill-opacity:1;" d="M 236.972656 154.742188 L 238.332031 154.742188 L 238.332031 156.09375 L 236.972656 156.09375 Z M 236.972656 154.742188 "/><path style=" stroke:none;fill-rule:nonzero;fill:#ffffff;fill-opacity:1;" d="M 236.402344 146.511719 L 236.441406 146.511719 L 236.441406 146.574219 L 236.402344 146.574219 Z M 236.402344 146.511719 "/><path style=" stroke:none;fill-rule:nonzero;fill:#ffffff;fill-opacity:1;" d="M 236.402344 148.480469 L 236.441406 148.480469 L 236.441406 148.71875 L 236.402344 148.71875 Z M 236.402344 148.480469 "/><path style=" stroke:none;fill-rule:nonzero;fill:#ffffff;fill-opacity:1;" d="M 212.527344 149.164062 L 212.796875 149.164062 L 212.796875 149.289062 L 212.527344 149.289062 Z M 212.527344 149.164062 "/><g clip-rule="nonzero" clip-path="url(#a5ffd212ee)"><path style=" stroke:none;fill-rule:nonzero;fill:#ffffff;fill-opacity:1;" d="M 212.582031 121.296875 L 203.15625 121.296875 C 202.621094 121.296875 202.1875 121.738281 202.1875 122.28125 L 202.1875 131.855469 C 202.1875 132.394531 202.621094 132.839844 203.15625 132.839844 L 212.582031 132.839844 C 213.117188 132.839844 213.554688 132.394531 213.554688 131.855469 L 213.554688 122.28125 C 213.554688 121.738281 213.117188 121.296875 212.582031 121.296875 Z M 211.613281 130.867188 L 204.125 130.867188 L 204.125 123.265625 L 211.613281 123.265625 Z M 211.613281 130.867188 "/></g><path style=" stroke:none;fill-rule:nonzero;fill:#ffffff;fill-opacity:1;" d="M 205.71875 124.882812 L 210.019531 124.882812 L 210.019531 129.25 L 205.71875 129.25 Z M 205.71875 124.882812 "/><g clip-rule="nonzero" clip-path="url(#69d07094f4)"><path style=" stroke:none;fill-rule:nonzero;fill:#ffffff;fill-opacity:1;" d="M 248.46875 121.296875 L 239.039062 121.296875 C 238.507812 121.296875 238.070312 121.738281 238.070312 122.28125 L 238.070312 131.855469 C 238.070312 132.394531 238.507812 132.839844 239.039062 132.839844 L 248.46875 132.839844 C 249 132.839844 249.4375 132.394531 249.4375 131.855469 L 249.4375 122.28125 C 249.4375 121.738281 249 121.296875 248.46875 121.296875 Z M 247.496094 130.867188 L 240.011719 130.867188 L 240.011719 123.265625 L 247.496094 123.265625 Z M 247.496094 130.867188 "/></g><path style=" stroke:none;fill-rule:nonzero;fill:#ffffff;fill-opacity:1;" d="M 241.601562 124.882812 L 245.90625 124.882812 L 245.90625 129.25 L 241.601562 129.25 Z M 241.601562 124.882812 "/><g clip-rule="nonzero" clip-path="url(#79b2741815)"><path style=" stroke:none;fill-rule:nonzero;fill:#ffffff;fill-opacity:1;" d="M 212.582031 157.738281 L 203.15625 157.738281 C 202.621094 157.738281 202.1875 158.183594 202.1875 158.722656 L 202.1875 168.296875 C 202.1875 168.839844 202.621094 169.285156 203.15625 169.285156 L 212.582031 169.285156 C 213.117188 169.285156 213.554688 168.839844 213.554688 168.296875 L 213.554688 158.722656 C 213.554688 158.183594 213.117188 157.738281 212.582031 157.738281 Z M 211.613281 167.3125 L 204.125 167.3125 L 204.125 159.710938 L 211.613281 159.710938 Z M 211.613281 167.3125 "/></g><path style=" stroke:none;fill-rule:nonzero;fill:#ffffff;fill-opacity:1;" d="M 205.71875 161.328125 L 210.019531 161.328125 L 210.019531 165.695312 L 205.71875 165.695312 Z M 205.71875 161.328125 "/></g></svg>