<svg xmlns="http://www.w3.org/2000/svg" xmlns:xlink="http://www.w3.org/1999/xlink" width="500" zoomAndPan="magnify" viewBox="0 0 375 374.999991" height="500" preserveAspectRatio="xMidYMid meet" version="1.2"><defs><clipPath id="da31563a66"><path d="M 7.636719 7.636719 L 367.394531 7.636719 L 367.394531 367.394531 L 7.636719 367.394531 Z M 7.636719 7.636719 "/></clipPath><clipPath id="303eef9e02"><path d="M 202.101562 144 L 213 144 L 213 156 L 202.101562 156 Z M 202.101562 144 "/></clipPath><clipPath id="2d2b5ae74b"><path d="M 202.101562 135 L 208 135 L 208 139 L 202.101562 139 Z M 202.101562 135 "/></clipPath><clipPath id="69a37cb5b3"><path d="M 208 121.289062 L 249.765625 121.289062 L 249.765625 168.953125 L 208 168.953125 Z M 208 121.289062 "/></clipPath><clipPath id="de38eb5dbb"><path d="M 202.101562 121.289062 L 214 121.289062 L 214 133 L 202.101562 133 Z M 202.101562 121.289062 "/></clipPath><clipPath id="de7477eb74"><path d="M 237 121.289062 L 249.765625 121.289062 L 249.765625 133 L 237 133 Z M 237 121.289062 "/></clipPath><clipPath id="8fd3982e65"><path d="M 202.101562 157 L 214 157 L 214 168.953125 L 202.101562 168.953125 Z M 202.101562 157 "/></clipPath></defs><g id="74add06ff2"><rect x="0" width="375" y="0" height="374.999991" style="fill:#ffffff;fill-opacity:1;stroke:none;"/><rect x="0" width="375" y="0" height="374.999991" style="fill:#ffffff;fill-opacity:1;stroke:none;"/><g clip-rule="nonzero" clip-path="url(#da31563a66)"><path style=" stroke:none;fill-rule:nonzero;fill:#ff5757;fill-opacity:1;" d="M 227.390625 7.636719 C 150.269531 7.636719 87.421875 70.484375 87.421875 147.605469 C 87.421875 181.050781 100.824219 210.59375 120.5 234.707031 L 7.539062 347.667969 L 27.332031 367.457031 L 140.292969 254.5 C 164.40625 274.171875 193.949219 287.578125 227.390625 287.578125 C 304.511719 287.578125 367.359375 224.726562 367.359375 147.605469 C 367.359375 70.484375 304.511719 7.636719 227.390625 7.636719 Z M 227.390625 35.632812 C 289.371094 35.632812 339.367188 85.625 339.367188 147.605469 C 339.367188 209.589844 289.371094 259.582031 227.390625 259.582031 C 165.410156 259.582031 115.414062 209.589844 115.414062 147.605469 C 115.414062 85.625 165.410156 35.632812 227.390625 35.632812 Z M 185.863281 96.648438 L 143.40625 147.605469 L 185.863281 198.566406 L 207.378906 180.632812 L 179.847656 147.605469 L 207.378906 114.582031 Z M 269.082031 96.648438 L 247.566406 114.582031 L 275.09375 147.605469 L 247.566406 180.632812 L 269.082031 198.566406 L 311.5625 147.605469 Z M 269.082031 96.648438 "/></g><path style=" stroke:none;fill-rule:nonzero;fill:#ff5757;fill-opacity:1;" d="M 220.152344 129.996094 L 222.367188 129.996094 L 222.367188 132.183594 L 220.152344 132.183594 Z M 220.152344 129.996094 "/><path style=" stroke:none;fill-rule:nonzero;fill:#ff5757;fill-opacity:1;" d="M 218.519531 133.359375 L 218.519531 135.546875 L 216.097656 135.492188 L 215.71875 135.480469 L 215.71875 133.296875 Z M 218.519531 133.359375 "/><path style=" stroke:none;fill-rule:nonzero;fill:#ff5757;fill-opacity:1;" d="M 218.925781 132.742188 L 221.140625 132.742188 L 221.140625 134.929688 L 218.925781 134.929688 Z M 218.925781 132.742188 "/><path style=" stroke:none;fill-rule:nonzero;fill:#ff5757;fill-opacity:1;" d="M 215.71875 129.414062 L 219.484375 129.414062 L 219.484375 131.59375 L 215.71875 131.59375 Z M 215.71875 129.414062 "/><path style=" stroke:none;fill-rule:nonzero;fill:#ff5757;fill-opacity:1;" d="M 208.441406 143.128906 L 210.65625 143.128906 L 210.65625 145.316406 L 208.441406 145.316406 Z M 208.441406 143.128906 "/><path style=" stroke:none;fill-rule:nonzero;fill:#ff5757;fill-opacity:1;" d="M 207.972656 139.582031 L 210.1875 139.582031 L 210.1875 141.769531 L 207.972656 141.769531 Z M 207.972656 139.582031 "/><path style=" stroke:none;fill-rule:nonzero;fill:#ff5757;fill-opacity:1;" d="M 215.71875 126.238281 L 218.519531 126.238281 L 218.519531 128.425781 L 215.71875 128.425781 Z M 215.71875 126.238281 "/><path style=" stroke:none;fill-rule:nonzero;fill:#ff5757;fill-opacity:1;" d="M 236.164062 146.332031 L 236.203125 146.332031 L 236.203125 146.398438 L 236.164062 146.398438 Z M 236.164062 146.332031 "/><path style=" stroke:none;fill-rule:nonzero;fill:#ff5757;fill-opacity:1;" d="M 236.164062 148.292969 L 236.203125 148.292969 L 236.203125 148.527344 L 236.164062 148.527344 Z M 236.164062 148.292969 "/><g clip-rule="nonzero" clip-path="url(#303eef9e02)"><path style=" stroke:none;fill-rule:nonzero;fill:#ff5757;fill-opacity:1;" d="M 212.722656 146.914062 L 212.722656 148.964844 L 212.453125 148.964844 L 212.453125 149.09375 L 211.078125 149.09375 L 211.078125 151.109375 L 207.988281 151.109375 L 207.988281 153.023438 L 210.191406 153.023438 L 210.191406 155.785156 L 202.757812 155.785156 L 202.757812 153.023438 L 205.84375 153.023438 L 205.84375 151.109375 L 202.757812 151.109375 L 202.757812 146.082031 L 204.484375 146.082031 L 204.484375 144.023438 L 206.703125 144.023438 L 206.703125 146.082031 L 208.292969 146.082031 L 208.292969 148.90625 L 209.546875 148.90625 L 209.546875 146.914062 Z M 212.722656 146.914062 "/></g><path style=" stroke:none;fill-rule:nonzero;fill:#ff5757;fill-opacity:1;" d="M 212.453125 148.972656 L 212.722656 148.972656 L 212.722656 149.09375 L 212.453125 149.09375 Z M 212.453125 148.972656 "/><g clip-rule="nonzero" clip-path="url(#2d2b5ae74b)"><path style=" stroke:none;fill-rule:nonzero;fill:#ff5757;fill-opacity:1;" d="M 207.972656 135.019531 L 207.972656 138.597656 L 205.835938 138.597656 L 205.835938 138.492188 L 205.757812 138.492188 L 205.757812 137.207031 L 202.65625 137.207031 L 202.65625 135.019531 Z M 207.972656 135.019531 "/></g><path style=" stroke:none;fill-rule:nonzero;fill:#ff5757;fill-opacity:1;" d="M 205.757812 138.492188 L 205.835938 138.492188 L 205.835938 138.597656 L 205.757812 138.597656 Z M 205.757812 138.492188 "/><path style=" stroke:none;fill-rule:nonzero;fill:#ff5757;fill-opacity:1;" d="M 207.28125 140.679688 L 207.28125 142.863281 L 205.066406 142.863281 L 205.066406 140.679688 L 203.621094 140.679688 L 203.621094 138.492188 L 205.757812 138.492188 L 205.757812 138.597656 L 205.835938 138.597656 L 205.835938 140.679688 Z M 207.28125 140.679688 "/><path style=" stroke:none;fill-rule:nonzero;fill:#ff5757;fill-opacity:1;" d="M 205.757812 138.492188 L 205.835938 138.492188 L 205.835938 138.597656 L 205.757812 138.597656 Z M 205.757812 138.492188 "/><path style=" stroke:none;fill-rule:nonzero;fill:#ff5757;fill-opacity:1;" d="M 215.71875 135.023438 L 215.71875 135.480469 L 216.097656 135.492188 L 216.097656 135.023438 Z M 215.71875 135.023438 "/><g clip-rule="nonzero" clip-path="url(#69a37cb5b3)"><path style=" stroke:none;fill-rule:nonzero;fill:#ff5757;fill-opacity:1;" d="M 245.484375 139.226562 L 246.875 139.226562 L 246.875 140.921875 L 245.484375 140.921875 Z M 243.542969 137.339844 L 245.023438 137.339844 L 245.023438 139.078125 L 243.542969 139.078125 Z M 241.789062 139.371094 L 243.261719 139.371094 L 243.261719 140.960938 L 241.789062 140.960938 Z M 239.757812 146.351562 L 241.789062 146.351562 L 241.789062 148.144531 L 239.757812 148.144531 Z M 228.085938 125.738281 L 222.855469 125.738281 L 222.855469 127.015625 L 221.632812 127.015625 L 221.632812 125.128906 L 219.601562 125.128906 L 219.601562 123.46875 L 226.792969 123.46875 L 226.792969 124.828125 L 228.085938 124.828125 Z M 217.53125 149.550781 L 216.582031 149.550781 L 216.582031 145.605469 L 217.53125 145.605469 Z M 221.953125 149.527344 L 218.808594 149.527344 L 218.808594 146.332031 L 221.953125 146.332031 Z M 220.09375 163.320312 L 218.800781 163.320312 L 218.800781 161.664062 L 220.09375 161.664062 Z M 220.191406 159.46875 L 218.554688 159.46875 L 218.554688 157.578125 L 220.191406 157.578125 Z M 234.285156 141.296875 L 237.546875 141.296875 L 237.546875 144.210938 L 236.457031 144.210938 L 236.457031 142.425781 L 234.285156 142.425781 Z M 234.285156 144.613281 L 236.164062 144.613281 L 236.164062 146.332031 L 236.203125 146.332031 L 236.203125 146.398438 L 237.546875 146.398438 L 237.546875 148.292969 L 236.203125 148.292969 L 236.203125 148.527344 L 236.164062 148.527344 L 236.164062 148.292969 L 236.203125 148.292969 L 236.203125 146.398438 L 236.164062 146.398438 L 236.164062 146.332031 L 234.285156 146.332031 Z M 228.621094 141.296875 L 230.460938 141.296875 L 230.460938 142.542969 L 232.125 142.542969 L 232.125 144.253906 L 228.621094 144.253906 Z M 230.667969 146.457031 L 230.667969 149.503906 L 228.921875 149.503906 L 228.921875 146.457031 Z M 223.402344 146.457031 L 226.15625 146.457031 L 226.15625 149.550781 L 223.402344 149.550781 Z M 221.855469 161.265625 L 220.378906 161.265625 L 220.378906 159.632812 L 221.855469 159.632812 Z M 226.71875 163.335938 L 223.597656 163.335938 L 223.597656 162.230469 L 226.71875 162.230469 Z M 226.71875 161.296875 L 224.894531 161.296875 L 224.894531 159.96875 L 226.71875 159.96875 Z M 229.371094 156.515625 L 224.140625 156.515625 L 224.140625 159.324219 L 222.402344 159.324219 L 222.402344 157.449219 L 220.378906 157.449219 L 220.378906 155.589844 L 227.285156 155.589844 L 227.285156 154.210938 L 229.371094 154.210938 Z M 233.992188 161.296875 L 229.496094 161.296875 L 229.496094 159.96875 L 232.066406 159.96875 L 232.066406 158.71875 L 233.992188 158.71875 Z M 233.992188 157.773438 L 232.066406 157.773438 L 232.066406 153.007812 L 224.703125 153.007812 L 224.703125 151.753906 L 226.5 151.753906 L 226.5 149.550781 L 228.71875 149.550781 L 228.71875 151.257812 L 230.667969 151.257812 L 230.667969 152.445312 L 233.992188 152.445312 Z M 239.578125 155.34375 L 238.652344 155.34375 L 238.652344 158.078125 L 237.785156 158.078125 L 237.785156 156.710938 L 236.164062 156.710938 L 236.164062 152.394531 L 233.992188 152.394531 L 233.992188 150.199219 L 232.878906 150.199219 L 232.878906 146.457031 L 233.992188 146.457031 L 233.992188 150.199219 L 236.164062 150.199219 L 236.164062 152.394531 L 237.546875 152.394531 L 237.546875 154.050781 L 239.578125 154.050781 Z M 239.578125 141.109375 L 237.941406 141.109375 L 237.941406 139.207031 L 239.578125 139.207031 Z M 241.46875 159.632812 L 240.535156 159.632812 L 240.535156 158.546875 L 241.46875 158.546875 Z M 245.074219 159.863281 L 243.617188 159.863281 L 243.617188 158.511719 L 243.589844 158.511719 L 243.589844 158.242188 L 245.074219 158.242188 Z M 226.398438 138.496094 L 225.621094 138.496094 L 225.621094 135.753906 L 226.398438 135.753906 Z M 229.800781 138.398438 L 228.039062 138.398438 L 228.039062 136.636719 L 229.800781 136.636719 Z M 247.464844 160.730469 L 247.464844 162.878906 L 245.589844 162.878906 L 245.589844 160.132812 L 247.285156 160.132812 L 247.285156 158.863281 L 249.109375 158.863281 L 249.109375 156.679688 L 247.285156 156.679688 L 247.285156 154.671875 L 246.136719 154.671875 L 246.136719 153.066406 L 247.511719 153.066406 L 247.511719 154.703125 L 249.109375 154.703125 L 249.109375 152.507812 L 247.695312 152.507812 L 247.695312 150.878906 L 246.136719 150.878906 L 246.136719 149.242188 L 243.917969 149.242188 L 243.917969 152.507812 L 242.894531 152.507812 L 242.894531 150.878906 L 240.683594 150.878906 L 240.683594 153.066406 L 242.714844 153.066406 L 242.714844 154.703125 L 243.917969 154.703125 L 243.917969 155.34375 L 245.074219 155.34375 L 245.074219 156.554688 L 243.378906 156.554688 L 243.378906 158.078125 L 241.863281 158.078125 L 241.863281 156.710938 L 240.535156 156.710938 L 240.535156 156.046875 L 241.789062 156.046875 L 241.789062 153.605469 L 239.757812 153.605469 L 239.757812 150.339844 L 242.050781 150.339844 L 242.050781 148.375 L 244.007812 148.375 L 244.007812 146.351562 L 245.484375 146.351562 L 245.484375 148.234375 L 247.324219 148.234375 L 247.324219 150.078125 L 249.109375 150.078125 L 249.109375 147.890625 L 247.695312 147.890625 L 247.695312 146.046875 L 249.109375 146.046875 L 249.109375 144.15625 L 243.820312 144.15625 L 243.820312 146.195312 L 242.207031 146.195312 L 242.207031 144.15625 L 239.757812 144.15625 L 239.757812 141.265625 L 241.238281 141.265625 L 241.238281 143.148438 L 243.460938 143.148438 L 243.460938 141.265625 L 245.023438 141.265625 L 245.023438 143.097656 L 247.242188 143.097656 L 247.242188 141.074219 L 249.109375 141.074219 L 249.109375 138.882812 L 247.242188 138.882812 L 247.242188 137.039062 L 245.574219 137.039062 L 245.574219 134.628906 L 243.363281 134.628906 L 243.363281 137.1875 L 241.332031 137.1875 L 241.332031 139.078125 L 239.757812 139.078125 L 239.757812 137.015625 L 240.722656 137.015625 L 240.722656 134.628906 L 235.613281 134.628906 L 235.613281 137.414062 L 237.546875 137.414062 L 237.546875 138.496094 L 232.320312 138.496094 L 232.320312 136.808594 L 233.992188 136.808594 L 233.992188 134.628906 L 232.320312 134.628906 L 232.320312 132.738281 L 230.296875 132.738281 L 230.296875 130.757812 L 232.238281 130.757812 L 232.238281 132.4375 L 235.515625 132.4375 L 235.515625 130.257812 L 232.320312 130.257812 L 232.320312 128.757812 L 235.515625 128.757812 L 235.515625 126.570312 L 231.453125 126.570312 L 231.453125 128.578125 L 230.296875 128.578125 L 230.296875 124.828125 L 235.515625 124.828125 L 235.515625 122.582031 L 232.230469 122.582031 L 232.230469 121.304688 L 219.152344 121.304688 L 219.152344 123.074219 L 215.746094 123.074219 L 215.746094 125.261719 L 219.421875 125.261719 L 219.421875 127.316406 L 221.078125 127.316406 L 221.078125 129.199219 L 223.289062 129.199219 L 223.289062 127.929688 L 228.085938 127.929688 L 228.085938 128.90625 L 226.15625 128.90625 L 226.15625 131.09375 L 228.085938 131.09375 L 228.085938 132.878906 L 230.109375 132.878906 L 230.109375 134.449219 L 228.25 134.449219 L 228.25 135.300781 L 227.621094 135.300781 L 227.621094 133.566406 L 225.621094 133.566406 L 225.621094 130.503906 L 223.402344 130.503906 L 223.402344 134.449219 L 221.558594 134.449219 L 221.558594 136.644531 L 223.402344 136.644531 L 223.402344 138.496094 L 220.863281 138.496094 L 220.863281 136.539062 L 218.644531 136.539062 L 218.644531 138.496094 L 216.097656 138.496094 L 216.097656 135.492188 L 215.71875 135.480469 L 215.71875 135.023438 L 208.875 135.023438 L 208.875 137.636719 L 210.652344 137.636719 L 210.652344 139.585938 L 212.871094 139.585938 L 212.871094 137.636719 L 213.878906 137.636719 L 213.878906 140.355469 L 211.183594 140.355469 L 211.183594 142.542969 L 213.878906 142.542969 L 213.878906 143.410156 L 211.765625 143.410156 L 211.765625 145.605469 L 214.359375 145.605469 L 214.359375 148.972656 L 212.722656 148.972656 L 212.722656 149.09375 L 212.453125 149.09375 L 212.453125 155.785156 L 214.671875 155.785156 L 214.671875 153.007812 L 216.582031 153.007812 L 216.582031 151.753906 L 222.492188 151.753906 L 222.492188 153.402344 L 220.257812 153.402344 L 220.257812 155.390625 L 218.457031 155.390625 L 218.457031 153.605469 L 215.71875 153.605469 L 215.71875 155.792969 L 218.167969 155.792969 L 218.167969 157.449219 L 215.71875 157.449219 L 215.71875 159.632812 L 218.167969 159.632812 L 218.167969 161.484375 L 215.71875 161.484375 L 215.71875 168.570312 L 218.257812 168.570312 L 218.257812 165.5 L 220.480469 165.5 L 220.480469 163.441406 L 221.4375 163.441406 L 221.4375 168.0625 L 226.21875 168.0625 L 226.21875 166.859375 L 223.597656 166.859375 L 223.597656 165.5 L 224.328125 165.5 L 224.328125 164.546875 L 224.886719 164.546875 L 224.886719 166.203125 L 226.71875 166.203125 L 226.71875 166.957031 L 229.496094 166.957031 L 229.496094 165.652344 L 231.222656 165.652344 L 231.222656 167.570312 L 233.445312 167.570312 L 233.445312 165.390625 L 231.476562 165.390625 L 231.476562 164.6875 L 229.496094 164.6875 L 229.496094 163.335938 L 231.773438 163.335938 L 231.773438 162.230469 L 233.992188 162.230469 L 233.992188 165.15625 L 236.164062 165.15625 L 236.164062 158.546875 L 237.628906 158.546875 L 237.628906 159.914062 L 238.652344 159.914062 L 238.652344 160.453125 L 240.175781 160.453125 L 240.175781 161.3125 L 241.46875 161.3125 L 241.46875 161.363281 L 243.425781 161.363281 L 243.425781 162.589844 L 240.660156 162.589844 L 240.660156 164.148438 L 238.644531 164.148438 L 238.644531 166.316406 L 240.660156 166.316406 L 240.660156 168.011719 L 245.589844 168.011719 L 245.589844 164.980469 L 247.464844 164.980469 L 247.464844 168.011719 L 249.601562 168.011719 L 249.601562 160.730469 Z M 218.570312 143.410156 L 216.097656 143.410156 L 216.097656 141.296875 L 218.570312 141.296875 Z M 221.363281 142.132812 L 220.191406 142.132812 L 220.191406 140.960938 L 221.363281 140.960938 Z M 226.398438 144.253906 L 223.402344 144.253906 L 223.402344 141.296875 L 226.398438 141.296875 Z M 226.398438 144.253906 "/></g><path style=" stroke:none;fill-rule:nonzero;fill:#ff5757;fill-opacity:1;" d="M 236.726562 154.507812 L 238.078125 154.507812 L 238.078125 155.851562 L 236.726562 155.851562 Z M 236.726562 154.507812 "/><path style=" stroke:none;fill-rule:nonzero;fill:#ff5757;fill-opacity:1;" d="M 236.164062 146.332031 L 236.203125 146.332031 L 236.203125 146.398438 L 236.164062 146.398438 Z M 236.164062 146.332031 "/><path style=" stroke:none;fill-rule:nonzero;fill:#ff5757;fill-opacity:1;" d="M 236.164062 148.292969 L 236.203125 148.292969 L 236.203125 148.527344 L 236.164062 148.527344 Z M 236.164062 148.292969 "/><path style=" stroke:none;fill-rule:nonzero;fill:#ff5757;fill-opacity:1;" d="M 212.453125 148.972656 L 212.722656 148.972656 L 212.722656 149.09375 L 212.453125 149.09375 Z M 212.453125 148.972656 "/><g clip-rule="nonzero" clip-path="url(#de38eb5dbb)"><path style=" stroke:none;fill-rule:nonzero;fill:#ff5757;fill-opacity:1;" d="M 212.511719 121.296875 L 203.148438 121.296875 C 202.617188 121.296875 202.1875 121.734375 202.1875 122.273438 L 202.1875 131.78125 C 202.1875 132.320312 202.617188 132.757812 203.148438 132.757812 L 212.511719 132.757812 C 213.039062 132.757812 213.472656 132.320312 213.472656 131.78125 L 213.472656 122.273438 C 213.472656 121.734375 213.039062 121.296875 212.511719 121.296875 Z M 211.546875 130.800781 L 204.113281 130.800781 L 204.113281 123.25 L 211.546875 123.25 Z M 211.546875 130.800781 "/></g><path style=" stroke:none;fill-rule:nonzero;fill:#ff5757;fill-opacity:1;" d="M 205.695312 124.859375 L 209.964844 124.859375 L 209.964844 129.195312 L 205.695312 129.195312 Z M 205.695312 124.859375 "/><g clip-rule="nonzero" clip-path="url(#de7477eb74)"><path style=" stroke:none;fill-rule:nonzero;fill:#ff5757;fill-opacity:1;" d="M 248.144531 121.296875 L 238.78125 121.296875 C 238.253906 121.296875 237.820312 121.734375 237.820312 122.273438 L 237.820312 131.78125 C 237.820312 132.320312 238.253906 132.757812 238.78125 132.757812 L 248.144531 132.757812 C 248.671875 132.757812 249.105469 132.320312 249.105469 131.78125 L 249.105469 122.273438 C 249.105469 121.734375 248.671875 121.296875 248.144531 121.296875 Z M 247.179688 130.800781 L 239.746094 130.800781 L 239.746094 123.25 L 247.179688 123.25 Z M 247.179688 130.800781 "/></g><path style=" stroke:none;fill-rule:nonzero;fill:#ff5757;fill-opacity:1;" d="M 241.328125 124.859375 L 245.597656 124.859375 L 245.597656 129.195312 L 241.328125 129.195312 Z M 241.328125 124.859375 "/><g clip-rule="nonzero" clip-path="url(#8fd3982e65)"><path style=" stroke:none;fill-rule:nonzero;fill:#ff5757;fill-opacity:1;" d="M 212.511719 157.484375 L 203.148438 157.484375 C 202.617188 157.484375 202.1875 157.925781 202.1875 158.464844 L 202.1875 167.972656 C 202.1875 168.507812 202.617188 168.949219 203.148438 168.949219 L 212.511719 168.949219 C 213.039062 168.949219 213.472656 168.507812 213.472656 167.972656 L 213.472656 158.464844 C 213.472656 157.925781 213.039062 157.484375 212.511719 157.484375 Z M 211.546875 166.992188 L 204.113281 166.992188 L 204.113281 159.441406 L 211.546875 159.441406 Z M 211.546875 166.992188 "/></g><path style=" stroke:none;fill-rule:nonzero;fill:#ff5757;fill-opacity:1;" d="M 205.695312 161.046875 L 209.964844 161.046875 L 209.964844 165.386719 L 205.695312 165.386719 Z M 205.695312 161.046875 "/></g></svg>